# xmcd
#
# Track frame offsets:
# 150
# 16732
# 32970
# 47342
# 61467
# 78772
# 96845
# 113467
# 131442
# 147370
# 160052
# 179392
# 196757
# 220247
#
# Disc length: 3210 seconds
#
#
# Revision: 0
# Processed by: cddbd v1.5PL3 Copyright (c) Steve Scherf et al.
# Submitted via: FreeRIP 2.52 
#
DISCID=ae0c880e
DTITLE=Gian and Giovani - 100 Anos De Música
DYEAR=1900
DGENRE=Country
TTITLE0=1000 Corações
TTITLE1=Não Vá Embora
TTITLE2=Casinha Branca
TTITLE3=Me Dá Um Beijo
TTITLE4=Dói
TTITLE5=Alô
TTITLE6=Que Raio De Amor É Esse
TTITLE7=Nossa Senhora Aparecida
TTITLE8=Viagem Louca
TTITLE9=Caí No Laço
TTITLE10=Quem Será
TTITLE11=Te Amo Menina
TTITLE12=Codinome Beija - Flor (Ao Vivo)
TTITLE13=Planeta Sonho (Ao Vivo)
EXTD=
EXTT0=
EXTT1=
EXTT2=
EXTT3=
EXTT4=
EXTT5=
EXTT6=
EXTT7=
EXTT8=
EXTT9=
EXTT10=
EXTT11=
EXTT12=
EXTT13=
PLAYORDER=
